<?xml version="1.0" encoding="UTF-8" standalone="no"?>
<!-- Created with Inkscape (http://www.inkscape.org/) -->

<svg
   width="210mm"
   height="297mm"
   viewBox="0 0 210 297"
   version="1.1"
   id="svg5"
   inkscape:version="1.1.2 (b8e25be833, 2022-02-05)"
   sodipodi:docname="cadeado.svg"
   xmlns:inkscape="http://www.inkscape.org/namespaces/inkscape"
   xmlns:sodipodi="http://sodipodi.sourceforge.net/DTD/sodipodi-0.dtd"
   xmlns="http://www.w3.org/2000/svg"
   xmlns:svg="http://www.w3.org/2000/svg">
  <sodipodi:namedview
     id="namedview7"
     pagecolor="#ffffff"
     bordercolor="#666666"
     borderopacity="1.0"
     inkscape:pageshadow="2"
     inkscape:pageopacity="0.02352941"
     inkscape:pagecheckerboard="0"
     inkscape:document-units="mm"
     showgrid="false"
     inkscape:zoom="0.76435185"
     inkscape:cx="325.11205"
     inkscape:cy="561.91399"
     inkscape:window-width="1920"
     inkscape:window-height="1051"
     inkscape:window-x="-9"
     inkscape:window-y="-9"
     inkscape:window-maximized="1"
     inkscape:current-layer="layer1"
     showborder="false" />
  <defs
     id="defs2" />
  <g
     inkscape:label="Camada 1"
     inkscape:groupmode="layer"
     id="layer1">
    <path
       style="fill:#000000;stroke-width:1.96492"
       d="M 21.560151,242.26085 C 15.383968,241.00026 7.8363738,232.70948 6.4212138,225.6303 c -0.67152,-3.36195 -1.222655,-29.46158 -1.222655,-57.99939 0,-40.39879 0.618662,-53.36718 2.792318,-58.5709 2.9814722,-7.13486 11.6244872,-12.839241 19.4541882,-12.839241 4.545055,0 4.797925,-0.67655 5.667256,-15.227905 1.13141,-18.925397 7.476326,-33.192432 20.598345,-46.313825 44.602738,-44.6031777 120.248294,-16.348228 123.993514,46.313825 0.88984,14.887575 1.02516,15.228325 6.06145,15.235325 8.51581,0.002 17.45159,6.797871 19.92,15.126451 3.38803,11.43458 1.84075,116.15674 -1.79739,121.62659 -6.44196,9.68525 -5.70382,9.60719 -93.53265,9.88769 -45.388623,0.14221 -84.446715,-0.13017 -86.795439,-0.60712 z M 191.4706,229.44071 c 1.72621,-1.72627 2.3577,-17.74013 2.3577,-59.78873 0,-49.59066 -0.42134,-57.85263 -3.08757,-60.51889 -2.7086,-2.709 -13.18425,-3.08758 -85.33271,-3.08758 -72.148466,0 -82.623665,0.37674 -85.33266,3.08758 -2.66544,2.66626 -3.087504,10.92823 -3.087504,60.51889 0,42.0486 0.631423,58.06246 2.358399,59.78873 3.389866,3.39094 168.733685,3.39094 172.124345,0 z m -91.25536,-19.25786 c -7.246382,-2.89278 -10.525744,-9.79454 -10.525744,-22.15343 0,-8.98253 -1.06137,-13.01748 -4.912174,-18.68552 -10.048694,-14.78708 -4.088764,-33.93448 12.344238,-39.65949 23.77722,-8.28246 43.30161,18.493 28.918,39.65949 -3.88978,5.72485 -4.91217,9.68107 -4.91217,19.013 0,9.4698 -0.86798,12.73934 -4.42097,16.64725 -5.24411,5.76818 -10.71267,7.48557 -16.49118,5.1787 z m 10.68902,-25.368 c 0.48385,-12.0849 1.4038,-15.53771 5.4032,-20.29083 7.65265,-9.09472 5.84403,-19.3067 -4.38438,-24.75435 -6.63466,-3.53373 -10.259,-2.77348 -16.490695,3.45744 -7.070831,7.07105 -7.32737,13.68596 -0.830736,21.40692 4.206246,4.99956 4.912177,7.79522 4.912177,19.47202 0,14.87783 0.784204,16.70683 6.795704,15.84572 3.56269,-0.50893 4.07598,-2.20147 4.59473,-15.13692 z M 64.498591,83.48918 c 0.646732,-10.171287 1.994907,-14.418401 6.701407,-21.122456 16.880788,-24.043161 51.535432,-24.043161 68.416052,0 4.70665,6.704055 6.05423,10.951169 6.70223,21.122456 l 0.81083,12.731589 h 10.84176 10.84214 L 167.83428,82.542621 C 166.14344,58.910919 153.96437,40.453094 132.5145,29.013787 c -7.09399,-3.782964 -11.41686,-4.500724 -27.10648,-4.500724 -15.68934,0 -20.012038,0.718089 -27.105668,4.500724 C 56.85212,40.453094 44.672938,58.910919 42.98259,82.542621 L 42.0033,96.220769 h 10.842699 10.841606 z m 71.931479,1.843207 c -1.00543,-12.124229 -5.069,-18.980673 -15.48305,-26.127161 -5.58672,-3.833262 -8.56998,-4.463868 -17.99706,-3.804581 -9.180732,0.642607 -12.450884,1.872947 -17.434414,6.560019 -7.654124,7.197777 -11.545722,16.075812 -11.545722,26.337191 v 7.922914 h 31.681916 31.68122 z"
       id="path872" />
  </g>
</svg>
