<?xml version="1.0" encoding="UTF-8" standalone="no"?>
<!-- Created with Inkscape (http://www.inkscape.org/) -->

<svg
   width="210mm"
   height="297mm"
   viewBox="0 0 210 297"
   version="1.1"
   id="svg5"
   inkscape:version="1.1.2 (b8e25be833, 2022-02-05)"
   sodipodi:docname="user.svg"
   xmlns:inkscape="http://www.inkscape.org/namespaces/inkscape"
   xmlns:sodipodi="http://sodipodi.sourceforge.net/DTD/sodipodi-0.dtd"
   xmlns="http://www.w3.org/2000/svg"
   xmlns:svg="http://www.w3.org/2000/svg">
  <sodipodi:namedview
     id="namedview7"
     pagecolor="#ffffff"
     bordercolor="#666666"
     borderopacity="1.0"
     inkscape:pageshadow="2"
     inkscape:pageopacity="0.05490196"
     inkscape:pagecheckerboard="0"
     inkscape:document-units="cm"
     showgrid="false"
     inkscape:zoom="0.76435185"
     inkscape:cx="331.65354"
     inkscape:cy="561.91399"
     inkscape:window-width="1920"
     inkscape:window-height="1051"
     inkscape:window-x="-9"
     inkscape:window-y="-9"
     inkscape:window-maximized="1"
     inkscape:current-layer="layer1"
     inkscape:showpageshadow="false"
     showborder="false"
     units="mm" />
  <defs
     id="defs2" />
  <g
     inkscape:label="Camada 1"
     inkscape:groupmode="layer"
     id="layer1">
    <path
       style="fill:#000000;stroke-width:0.264583"
       d="m 101.137,198.99456 c -13.042522,-1.36237 -24.526802,-5.82918 -34.757992,-13.51911 -3.14821,-2.36625 -8.45952,-7.46908 -11.25155,-10.80991 -7.67979,-9.18932 -12.87845,-20.84737 -14.80715,-33.20521 -0.82828,-5.3071 -0.82828,-14.53665 0,-19.84375 1.79549,-11.5043 6.12681,-21.795217 13.0504,-31.006807 2.36625,-3.14821 7.46907,-8.45952 10.80991,-11.25155 9.18931,-7.67979 20.84737,-12.87845 33.2052,-14.807151 5.307102,-0.828283 14.536662,-0.828283 19.843762,0 7.38678,1.152862 13.47049,3.070391 19.97604,6.296281 7.48159,3.70988 12.97387,7.74609 18.9349,13.91506 9.8092,10.15137 15.92455,22.565657 18.15457,36.854167 0.82828,5.3071 0.82828,14.53665 0,19.84375 -1.15286,7.38679 -3.07039,13.47049 -6.29628,19.97604 -8.87198,17.89186 -24.87608,30.86535 -44.09824,35.74761 -4.93592,1.25368 -9.48801,1.83531 -15.26995,1.95109 -2.83766,0.0568 -6.20979,-0.006 -7.49362,-0.14051 z m 14.63737,-8.30343 c 11.05161,-1.63014 20.75643,-5.9418 29.85221,-13.26276 0.0476,-0.0383 -0.10981,-1.11781 -0.34985,-2.39885 -3.6547,-19.50388 -21.30455,-33.13546 -40.86694,-31.56295 -9.470582,0.76129 -17.606602,4.54734 -24.358212,11.33494 -4.58877,4.61324 -7.58137,9.47272 -9.47014,15.37791 -0.89543,2.79953 -1.74047,7.15727 -1.43177,7.3834 0.10919,0.08 1.18248,0.88454 2.38509,1.7879 6.82797,5.12898 14.44821,8.64457 22.75063,10.49597 2.45314,0.54704 3.96225,0.7702 9.053562,1.3388 1.77532,0.19826 9.94032,-0.12633 12.43542,-0.49436 z M 63.197418,167.29885 c 1.82018,-5.68479 5.1603,-11.51536 9.32692,-16.28124 4.22134,-4.82847 10.88499,-9.59217 16.72468,-11.95612 1.05456,-0.42688 1.91776,-0.84099 1.91823,-0.92023 5.3e-4,-0.0792 -0.58366,-0.58984 -1.29809,-1.13466 -1.75539,-1.33868 -4.75109,-4.52593 -6.04048,-6.42672 -3.25998,-4.80577 -4.88854,-10.12591 -4.89006,-15.97476 -0.001,-3.75346 0.35701,-6.00082 1.48176,-9.30221 5.25607,-15.427677 22.461192,-23.236447 37.663732,-17.094157 8.84345,3.57302 15.74327,12.154777 17.28747,21.501577 0.71306,4.31604 0.2498,9.92453 -1.15829,14.02292 -1.73724,5.05642 -5.36865,10.14786 -9.46705,13.27335 -0.71443,0.54482 -1.29896,1.07228 -1.29896,1.17213 0,0.0998 0.32461,0.263 0.72135,0.36257 1.39901,0.35113 6.12644,2.81996 8.8378,4.61541 8.6488,5.7272 15.30704,14.4629 18.41706,24.1634 0.54761,1.70809 1.0552,3.10682 1.12796,3.1083 0.0728,0.002 0.85678,-0.91981 1.74227,-2.04729 5.35913,-6.82369 9.1661,-14.65324 11.0901,-22.80825 4.19107,-17.76413 0.4565,-35.55298 -10.5562,-50.282327 -2.41167,-3.22559 -8.04641,-8.86033 -11.272,-11.272 -21.89217,-16.36813 -50.603672,-16.36813 -72.495842,0 -3.22559,2.41167 -8.86033,8.04641 -11.272,11.272 -8.44919,11.300687 -12.75329,24.761027 -12.1829,38.099997 0.57264,13.39154 4.72357,24.81293 12.7168,34.99058 0.88549,1.12748 1.66951,2.04876 1.74227,2.04729 0.0728,-0.002 0.58282,-1.40978 1.13347,-3.12956 z m 46.791372,-32.44099 c 6.68902,-0.58242 13.24287,-5.52422 16.17737,-12.19823 1.63968,-3.72917 2.1057,-8.98769 1.14758,-12.9493 -1.70845,-7.06405 -7.43707,-12.937827 -14.63725,-15.008137 -2.92738,-0.84172 -7.8102,-0.84172 -10.73758,0 -7.200182,2.07031 -12.928802,7.944087 -14.637252,15.008137 -0.6021,2.48954 -0.60689,7.08781 -0.01,9.50971 1.76558,7.16282 6.91637,12.67492 13.975072,14.95535 1.66568,0.53812 5.36095,1.0601 6.43775,0.90936 0.29104,-0.0407 1.31894,-0.14284 2.28421,-0.22689 z"
       id="path872" />
  </g>
</svg>
